<svg xmlns="http://www.w3.org/2000/svg" viewBox="0 0 1024 1024"><title>circle</title><path d="M678.57,27.72a514.31,514.31,0,0,0-341.49,2.94L678.57,370.87Z" fill="#f1765a"/><path d="M30.08,685.3,372.5,344.18H28.15A514.29,514.29,0,0,0,30.08,685.3Z" fill="#f1dd5a"/><path d="M48.4,294.43H531.11L287.6,51.67A514.1,514.1,0,0,0,48.4,294.43Z" fill="#f1b35a"/><path d="M970.67,284.22A514.16,514.16,0,0,0,728.5,47.89V529.06Z" fill="#6c5af1"/><path d="M295.77,976.23V491.09L51,735A514.07,514.07,0,0,0,295.77,976.23Z" fill="#baf259"/><path d="M992,333.56,651.78,675.8H997.23A514.31,514.31,0,0,0,992,333.56Z" fill="#5a9ef1"/><path d="M690.06,992.18,345.7,649.11V996.38a514.28,514.28,0,0,0,344.36-4.2Z" fill="#5ef15a"/><path d="M977.47,725.55H493.16L739.29,970.91A514.12,514.12,0,0,0,977.47,725.55Z" fill="#5ae5f1"/></svg>