<svg xmlns="http://www.w3.org/2000/svg" viewBox="0 0 1024 1024"><title>clock</title><path d="M512,115.79C730.81,116.91,907.28,295.2,906.16,514S726.75,909.28,507.94,908.16C289.92,907.05,113.77,730,113.78,512c.82-219.26,179-396.48,398.22-396.17M512,0C229.23,0,0,229.23,0,512s229.23,512,512,512,512-229.23,512-512h0C1024,229.23,794.77,0,512,0ZM668.62,646.88H479A57.38,57.38,0,0,1,422.1,589V318.84a56.89,56.89,0,1,1,113.77,0V531.11H668.62a57.89,57.89,0,0,1,0,115.77Z" style="fill:#bbb;fill-rule:evenodd"/></svg>