<svg xmlns="http://www.w3.org/2000/svg" viewBox="0 0 955.76 853.03"><title>heart</title><path d="M681.21,66.47c116.73,1.31,210.39,96.84,209.38,213.58a216.08,216.08,0,0,1-68.7,158.19,65.44,65.44,0,0,0-6.57,7.05L521.4,745.1A338.12,338.12,0,0,1,477.88,785a339,339,0,0,1-43.54-39.86L140.49,445.25a66.33,66.33,0,0,0-6.62-7.1,216.09,216.09,0,0,1-68.7-158.1c-1-116.74,92.65-212.27,209.38-213.58a208.24,208.24,0,0,1,155.1,70.06,64.31,64.31,0,0,0,90.77,5.7,65.12,65.12,0,0,0,5.69-5.7,208.24,208.24,0,0,1,155.1-70.06m0-66.47A271.56,271.56,0,0,0,477.88,91.85,271.63,271.63,0,0,0,274.55,0C121.42,1.55-1.48,126.91,0,280.05A281.83,281.83,0,0,0,90.07,487.44h-.46L388.28,792.1C418.15,822.56,448,853,477.88,853s59.73-30.47,89.6-60.93L866.15,487.44h-.45a281.89,281.89,0,0,0,90-207.39C957.23,126.92,834.34,1.56,681.21,0Z" style="fill:#888;fill-rule:evenodd"/></svg>