<svg xmlns="http://www.w3.org/2000/svg" viewBox="0 0 955.73 955.73"><title>more</title><path d="M477.87,65.16c227.93,0,412.7,184.78,412.7,412.71s-184.77,412.7-412.7,412.7S65.16,705.8,65.16,477.87C65.42,250,250,65.42,477.87,65.16m0-65.16C214,0,0,214,0,477.87S214,955.73,477.87,955.73,955.73,741.79,955.73,477.87,741.79,0,477.87,0ZM336.67,477.87a54.31,54.31,0,1,1-54.3-54.31h0A54.3,54.3,0,0,1,336.67,477.87Zm195.5,0a54.31,54.31,0,1,1-54.3-54.31h0A54.3,54.3,0,0,1,532.17,477.87Zm195.5,0a54.31,54.31,0,1,1-54.3-54.31h0a54.3,54.3,0,0,1,54.28,54.31Z" style="fill:#888;fill-rule:evenodd"/></svg>