<svg xmlns="http://www.w3.org/2000/svg" viewBox="0 0 955.89 989.87"><title>setting</title><path d="M478,725.13c-127.13.37-230.49-102.4-230.86-229.53s102.4-230.49,229.53-230.86,230.49,102.4,230.86,229.53v.66C707.52,621.82,604.84,724.8,478,725.13Zm0-391.34a161.15,161.15,0,1,0,160.68,161.6v-.46A161.09,161.09,0,0,0,478,333.79Zm91.82,656.08H386.13a34.45,34.45,0,0,1-34.25-31.1L339.62,835.89a363.21,363.21,0,0,1-86.87-50.4L140.44,836.33a34.37,34.37,0,0,1-44-14.21L4.64,662.63a34.56,34.56,0,0,1,9.71-45.29l99.81-72a368.58,368.58,0,0,1,0-100.95L14.33,372.51a34.58,34.58,0,0,1-9.71-45.29L96.44,167.73a34.32,34.32,0,0,1,44-14.13l112.33,50.84A362.59,362.59,0,0,1,339.62,154L351.88,31.15A34.45,34.45,0,0,1,386.13,0H569.77A34.46,34.46,0,0,1,604,31.1L616.27,154a362.66,362.66,0,0,1,86.86,50.41L815.48,153.6a34.34,34.34,0,0,1,44,14.22L951.28,327.3a34.6,34.6,0,0,1-9.71,45.3l-99.81,71.94a367.87,367.87,0,0,1,0,101l99.81,72a34.6,34.6,0,0,1,9.71,45.3L859.46,822.24a34.41,34.41,0,0,1-44,14.21L703.16,785.61a363.54,363.54,0,0,1-87,50.32L603.94,958.81A34.47,34.47,0,0,1,569.77,989.87ZM417.29,920.81H538.62l11.27-113.16a34.48,34.48,0,0,1,23.27-29.29,296.15,296.15,0,0,0,101.77-59.07,34.28,34.28,0,0,1,37-5.58l103.51,46.85,60.66-105.35-91.91-66.27a34.59,34.59,0,0,1-13.65-34.82,300.75,300.75,0,0,0,0-118.36A34.56,34.56,0,0,1,784.14,401l91.91-66.27L815.41,229.32,711.9,276.16A34.32,34.32,0,0,1,675,270.59a296.36,296.36,0,0,0-101.79-59.08,34.52,34.52,0,0,1-23.28-29.29L538.64,69H417.29L406,182.22a34.47,34.47,0,0,1-23.27,29.29A295.9,295.9,0,0,0,281,270.59,34.44,34.44,0,0,1,244,276.16L140.51,229.32,79.84,334.68,171.74,401a34.54,34.54,0,0,1,13.65,34.81,300.75,300.75,0,0,0,0,118.36,34.57,34.57,0,0,1-13.65,34.82L79.82,655.21l60.67,105.35L244,713.71A34.35,34.35,0,0,1,281,719.29a296.24,296.24,0,0,0,101.77,59.07A34.44,34.44,0,0,1,406,807.65Z" style="fill:#1496ff;fill-rule:evenodd"/></svg>