<svg xmlns="http://www.w3.org/2000/svg" viewBox="0 0 953.01 955.99"><title>share</title><path d="M475.15,956C211.16,954.41-1.57,739.13,0,475.14,1.57,213.38,213.39,1.56,475.15,0a32.75,32.75,0,0,1,0,65.48C247.32,65.59,62.71,250.36,62.82,478.19S247.7,890.63,475.52,890.52,887.85,705.76,887.85,478A32.58,32.58,0,0,1,953,478C952.75,741.83,739,955.66,475.15,956ZM909.6,0H648.92a43.66,43.66,0,1,0,0,87.31H804.7l-360.27,362a43.79,43.79,0,0,0,0,61.73,43.26,43.26,0,0,0,61.18.25l.26-.25L866.13,149V305.63a43.44,43.44,0,1,0,86.88,0V0Z" style="fill:#888;fill-rule:evenodd"/></svg>