<svg xmlns="http://www.w3.org/2000/svg" viewBox="0 0 1024 829.43"><title>wechat</title><path d="M552.38,46.9C495.44,17.13,428.54,0,358.16,0,253.27,0,158.49,38.09,92.81,99.44c-69.24,64.68-106.48,160-88.18,254.3C19.46,430.2,69,494.54,143.3,546.43L107.48,654.19l125.21-62.8c15.42,3.06,30.67,6.09,45.87,8.76,37.26,6.53,74.31,10.85,113,7.81-33.12-113.33,11.25-217.86,91.18-284.4,63.49-52.86,149.42-81.74,236.78-72C701,164.9,637.91,91.63,552.38,46.9ZM283.77,214.09a41.63,41.63,0,0,1-9.57,15.41c-8.27,8.3-19.43,12.15-31,12.45-15.17.39-31-5.35-41.67-15.16a41.41,41.41,0,0,1-10.25-14.41,39.74,39.74,0,0,1,10.24-45.15c10.68-9.74,26.51-15.45,41.69-15.06,11.54.31,22.7,4.13,31,12.38C286.59,176.89,289.74,197.48,283.77,214.09Zm250,2A41.11,41.11,0,0,1,525,229.49c-8.91,8.92-21.16,12.71-33.6,12.47-14.34-.27-28.94-5.87-39-15.11a41.39,41.39,0,0,1-9.42-12.6,39.82,39.82,0,0,1,9.35-47c10.05-9.21,24.68-14.79,39.05-15.07,12.47-.24,24.74,3.53,33.64,12.4C537.89,177.39,540.78,199.16,533.8,216.08Z" fill="#69cf3e"/><path d="M1024,533.67c0-41.46-12-80.7-33-115.54A270.78,270.78,0,0,0,943.56,360c-66.65-62.16-159.39-91.76-249.73-85.39-79.45,5.6-149.51,36.75-199.51,83.62a266.53,266.53,0,0,0-37.47,43.45c-26.58,38.71-41.74,83.84-41.74,131.95,0,73,34.76,139,91.36,186.25,48,40.1,111.81,66.66,183.43,72.48q14.72,1.2,29.86,1.21c35.67,0,71.64-9,107.47-18l98.24,53.8Q912,784.69,898.54,739.92C970.43,686,1024,614.45,1024,533.67Zm-354.61-70a38.06,38.06,0,0,1-10.67,16.41,52.27,52.27,0,0,1-32.07,13.54c-12.48.74-25-3.16-34.4-12.49a41.73,41.73,0,0,1-10.59-17.21c-4.09-13.29-.52-27.82,10.64-39,9.37-9.37,21.92-13.28,34.38-12.53a52.22,52.22,0,0,1,32,13.62C669.94,436.41,673.51,450.78,669.39,463.68ZM866,465.24a38.55,38.55,0,0,1-10.17,14.87,52.52,52.52,0,0,1-34.2,13.72c-11.75.23-23.4-3.72-32.21-12.56a42.19,42.19,0,0,1-10.06-15.63c-4.91-13.8-1.52-29.15,10.1-40.82a43.6,43.6,0,0,1,32.15-12.59A52.47,52.47,0,0,1,855.73,426C867.5,436.79,870.94,451.92,866,465.24Z" fill="#69cf3e"/></svg>